  0
SECTION
  2
BLOCKS
  0
ENDSEC
  0
SECTION
  2
ENTITIES
  0
LINE
  8
0
 10
65.5593
 20
0.00730896
 11
65.7675
 21
0.0291901
  0
LINE
  8
0
 10
65.7675
 20
0.0291901
 11
65.9737
 21
0.0655518
  0
LINE
  8
0
 10
65.9737
 20
0.0655518
 11
66.1769
 21
0.116211
  0
LINE
  8
0
 10
66.1769
 20
0.116211
 11
66.3761
 21
0.180923
  0
LINE
  8
0
 10
66.3761
 20
0.180923
 11
66.5702
 21
0.259369
  0
LINE
  8
0
 10
66.5702
 20
0.259369
 11
66.7584
 21
0.351151
  0
LINE
  8
0
 10
66.7584
 20
0.351151
 11
66.9397
 21
0.455856
  0
LINE
  8
0
 10
66.9397
 20
0.455856
 11
67.1133
 21
0.572952
  0
LINE
  8
0
 10
67.1133
 20
0.572952
 11
67.2784
 21
0.701874
  0
LINE
  8
0
 10
67.2784
 20
0.701874
 11
67.434
 21
0.84198
  0
LINE
  8
0
 10
67.434
 20
0.84198
 11
67.5794
 21
0.992615
  0
LINE
  8
0
 10
67.5794
 20
0.992615
 11
67.714
 21
1.15302
  0
LINE
  8
0
 10
67.714
 20
1.15302
 11
67.8371
 21
1.32242
  0
LINE
  8
0
 10
67.8371
 20
1.32242
 11
67.9481
 21
1.5
  0
LINE
  8
0
 10
67.9481
 20
1.5
 11
68.0464
 21
1.68489
  0
LINE
  8
0
 10
68.0464
 20
1.68489
 11
68.1315
 21
1.87617
  0
LINE
  8
0
 10
68.1315
 20
1.87617
 11
68.2032
 21
2.07295
  0
LINE
  8
0
 10
68.2032
 20
2.07295
 11
68.2609
 21
2.27423
  0
LINE
  8
0
 10
68.2609
 20
2.27423
 11
68.3044
 21
2.47905
  0
LINE
  8
0
 10
68.3044
 20
2.47905
 11
68.3336
 21
2.68642
  0
LINE
  8
0
 10
68.3336
 20
2.68642
 11
68.3482
 21
2.89529
  0
LINE
  8
0
 10
68.3482
 20
2.89529
 11
68.35
 21
3
  0
LINE
  8
0
 10
68.35
 20
3
 11
68.35
 21
3.37698
  0
LINE
  8
0
 10
68.35
 20
3.37698
 11
68.3977
 21
3.44141
  0
LINE
  8
0
 10
68.3977
 20
3.44141
 11
68.4715
 21
3.5591
  0
LINE
  8
0
 10
68.4715
 20
3.5591
 11
68.5123
 21
3.61528
  0
LINE
  8
0
 10
68.5123
 20
3.61528
 11
68.5572
 21
3.66887
  0
LINE
  8
0
 10
68.5572
 20
3.66887
 11
68.6058
 21
3.71915
  0
LINE
  8
0
 10
68.6058
 20
3.71915
 11
68.6575
 21
3.76567
  0
LINE
  8
0
 10
68.6575
 20
3.76567
 11
68.7125
 21
3.80869
  0
LINE
  8
0
 10
68.7125
 20
3.80869
 11
68.7702
 21
3.8476
  0
LINE
  8
0
 10
68.7702
 20
3.8476
 11
68.8307
 21
3.88252
  0
LINE
  8
0
 10
68.8307
 20
3.88252
 11
68.8933
 21
3.91309
  0
LINE
  8
0
 10
68.8933
 20
3.91309
 11
68.9583
 21
3.93933
  0
LINE
  8
0
 10
68.9583
 20
3.93933
 11
69.0244
 21
3.96082
  0
LINE
  8
0
 10
69.0244
 20
3.96082
 11
69.0921
 21
3.97769
  0
LINE
  8
0
 10
69.0921
 20
3.97769
 11
69.161
 21
3.98984
  0
LINE
  8
0
 10
69.161
 20
3.98984
 11
69.2289
 21
3.99675
  0
LINE
  8
0
 10
69.2289
 20
3.99675
 11
69.3182
 21
4
  0
LINE
  8
0
 10
69.3182
 20
4
 11
69.7998
 21
4.0002
  0
LINE
  8
0
 10
69.7998
 20
4.0002
 11
69.8695
 21
4.00266
  0
LINE
  8
0
 10
69.8695
 20
4.00266
 11
69.9389
 21
4.00998
  0
LINE
  8
0
 10
69.9389
 20
4.00998
 11
70.0077
 21
4.02214
  0
LINE
  8
0
 10
70.0077
 20
4.02214
 11
70.0754
 21
4.03905
  0
LINE
  8
0
 10
70.0754
 20
4.03905
 11
70.1418
 21
4.06064
  0
LINE
  8
0
 10
70.1418
 20
4.06064
 11
70.2065
 21
4.08681
  0
LINE
  8
0
 10
70.2065
 20
4.08681
 11
70.2692
 21
4.11743
  0
LINE
  8
0
 10
70.2692
 20
4.11743
 11
70.3296
 21
4.15236
  0
LINE
  8
0
 10
70.3296
 20
4.15236
 11
70.3875
 21
4.19142
  0
LINE
  8
0
 10
70.3875
 20
4.19142
 11
70.4425
 21
4.23441
  0
LINE
  8
0
 10
70.4425
 20
4.23441
 11
70.4943
 21
4.28113
  0
LINE
  8
0
 10
70.4943
 20
4.28113
 11
70.5428
 21
4.33136
  0
LINE
  8
0
 10
70.5428
 20
4.33136
 11
70.5876
 21
4.38486
  0
LINE
  8
0
 10
70.5876
 20
4.38486
 11
70.6286
 21
4.44133
  0
LINE
  8
0
 10
70.6286
 20
4.44133
 11
70.6656
 21
4.50055
  0
LINE
  8
0
 10
70.6656
 20
4.50055
 11
70.6983
 21
4.56218
  0
LINE
  8
0
 10
70.6983
 20
4.56218
 11
70.7267
 21
4.62596
  0
LINE
  8
0
 10
70.7267
 20
4.62596
 11
70.7505
 21
4.69156
  0
LINE
  8
0
 10
70.7505
 20
4.69156
 11
70.7698
 21
4.75867
  0
LINE
  8
0
 10
70.7698
 20
4.75867
 11
70.7843
 21
4.82693
  0
LINE
  8
0
 10
70.7843
 20
4.82693
 11
70.7939
 21
4.89606
  0
LINE
  8
0
 10
70.7939
 20
4.89606
 11
70.7994
 21
5.0002
  0
LINE
  8
0
 10
70.7994
 20
5.0002
 11
70.7994
 21
33.6998
  0
LINE
  8
0
 10
70.7994
 20
33.6998
 11
70.797
 21
33.7696
  0
LINE
  8
0
 10
70.797
 20
33.7696
 11
70.7897
 21
33.839
  0
LINE
  8
0
 10
70.7897
 20
33.839
 11
70.7775
 21
33.9077
  0
LINE
  8
0
 10
70.7775
 20
33.9077
 11
70.7607
 21
33.9754
  0
LINE
  8
0
 10
70.7607
 20
33.9754
 11
70.7391
 21
34.0418
  0
LINE
  8
0
 10
70.7391
 20
34.0418
 11
70.7129
 21
34.1065
  0
LINE
  8
0
 10
70.7129
 20
34.1065
 11
70.6823
 21
34.1693
  0
LINE
  8
0
 10
70.6823
 20
34.1693
 11
70.6474
 21
34.2297
  0
LINE
  8
0
 10
70.6474
 20
34.2297
 11
70.6084
 21
34.2876
  0
LINE
  8
0
 10
70.6084
 20
34.2876
 11
70.5654
 21
34.3426
  0
LINE
  8
0
 10
70.5654
 20
34.3426
 11
70.5187
 21
34.3945
  0
LINE
  8
0
 10
70.5187
 20
34.3945
 11
70.4685
 21
34.4429
  0
LINE
  8
0
 10
70.4685
 20
34.4429
 11
70.4151
 21
34.4878
  0
LINE
  8
0
 10
70.4151
 20
34.4878
 11
70.3586
 21
34.5288
  0
LINE
  8
0
 10
70.3586
 20
34.5288
 11
70.2994
 21
34.5658
  0
LINE
  8
0
 10
70.2994
 20
34.5658
 11
70.2378
 21
34.5986
  0
LINE
  8
0
 10
70.2378
 20
34.5986
 11
70.174
 21
34.627
  0
LINE
  8
0
 10
70.174
 20
34.627
 11
70.1084
 21
34.6508
  0
LINE
  8
0
 10
70.1084
 20
34.6508
 11
70.0413
 21
34.6701
  0
LINE
  8
0
 10
70.0413
 20
34.6701
 11
69.973
 21
34.6846
  0
LINE
  8
0
 10
69.973
 20
34.6846
 11
69.9039
 21
34.6943
  0
LINE
  8
0
 10
69.9039
 20
34.6943
 11
69.8009
 21
34.6998
  0
LINE
  8
0
 10
69.8009
 20
34.6998
 11
69.2825
 21
34.7006
  0
LINE
  8
0
 10
69.2825
 20
34.7006
 11
69.2123
 21
34.7043
  0
LINE
  8
0
 10
69.2123
 20
34.7043
 11
69.143
 21
34.7129
  0
LINE
  8
0
 10
69.143
 20
34.7129
 11
69.0749
 21
34.7261
  0
LINE
  8
0
 10
69.0749
 20
34.7261
 11
69.0073
 21
34.7443
  0
LINE
  8
0
 10
69.0073
 20
34.7443
 11
68.9415
 21
34.7669
  0
LINE
  8
0
 10
68.9415
 20
34.7669
 11
68.8772
 21
34.7943
  0
LINE
  8
0
 10
68.8772
 20
34.7943
 11
68.8153
 21
34.8258
  0
LINE
  8
0
 10
68.8153
 20
34.8258
 11
68.7551
 21
34.8621
  0
LINE
  8
0
 10
68.7551
 20
34.8621
 11
68.6981
 21
34.902
  0
LINE
  8
0
 10
68.6981
 20
34.902
 11
68.6437
 21
34.9461
  0
LINE
  8
0
 10
68.6437
 20
34.9461
 11
68.5929
 21
34.9935
  0
LINE
  8
0
 10
68.5929
 20
34.9935
 11
68.5454
 21
35.0445
  0
LINE
  8
0
 10
68.5454
 20
35.0445
 11
68.5015
 21
35.0987
  0
LINE
  8
0
 10
68.5015
 20
35.0987
 11
68.4646
 21
35.1512
  0
LINE
  8
0
 10
68.4646
 20
35.1512
 11
68.4231
 21
35.2195
  0
LINE
  8
0
 10
68.4231
 20
35.2195
 11
68.3848
 21
35.2778
  0
LINE
  8
0
 10
68.3848
 20
35.2778
 11
68.35
 21
35.3234
  0
LINE
  8
0
 10
68.35
 20
35.3234
 11
68.35
 21
50.5
  0
LINE
  8
0
 10
68.35
 20
50.5
 11
68.3427
 21
50.7093
  0
LINE
  8
0
 10
68.3427
 20
50.7093
 11
68.3208
 21
50.9175
  0
LINE
  8
0
 10
68.3208
 20
50.9175
 11
68.2844
 21
51.1237
  0
LINE
  8
0
 10
68.2844
 20
51.1237
 11
68.2338
 21
51.3269
  0
LINE
  8
0
 10
68.2338
 20
51.3269
 11
68.1691
 21
51.5261
  0
LINE
  8
0
 10
68.1691
 20
51.5261
 11
68.0906
 21
51.7202
  0
LINE
  8
0
 10
68.0906
 20
51.7202
 11
67.9988
 21
51.9084
  0
LINE
  8
0
 10
67.9988
 20
51.9084
 11
67.8941
 21
52.0898
  0
LINE
  8
0
 10
67.8941
 20
52.0898
 11
67.777
 21
52.2634
  0
LINE
  8
0
 10
67.777
 20
52.2634
 11
67.6481
 21
52.4284
  0
LINE
  8
0
 10
67.6481
 20
52.4284
 11
67.508
 21
52.584
  0
LINE
  8
0
 10
67.508
 20
52.584
 11
67.3574
 21
52.7294
  0
LINE
  8
0
 10
67.3574
 20
52.7294
 11
67.197
 21
52.864
  0
LINE
  8
0
 10
67.197
 20
52.864
 11
67.0276
 21
52.9871
  0
LINE
  8
0
 10
67.0276
 20
52.9871
 11
66.85
 21
53.0981
  0
LINE
  8
0
 10
66.85
 20
53.0981
 11
66.6651
 21
53.1964
  0
LINE
  8
0
 10
66.6651
 20
53.1964
 11
66.4738
 21
53.2816
  0
LINE
  8
0
 10
66.4738
 20
53.2816
 11
66.277
 21
53.3532
  0
LINE
  8
0
 10
66.277
 20
53.3532
 11
66.0758
 21
53.4109
  0
LINE
  8
0
 10
66.0758
 20
53.4109
 11
65.8709
 21
53.4544
  0
LINE
  8
0
 10
65.8709
 20
53.4544
 11
65.6636
 21
53.4836
  0
LINE
  8
0
 10
65.6636
 20
53.4836
 11
65.4547
 21
53.4982
  0
LINE
  8
0
 10
65.4547
 20
53.4982
 11
65.35
 21
53.5
  0
LINE
  8
0
 10
65.35
 20
53.5
 11
5.5
 21
53.5
  0
LINE
  8
0
 10
5.5
 20
53.5
 11
5.29073
 21
53.4927
  0
LINE
  8
0
 10
5.29073
 20
53.4927
 11
5.08247
 21
53.4708
  0
LINE
  8
0
 10
5.08247
 20
53.4708
 11
4.87627
 21
53.4344
  0
LINE
  8
0
 10
4.87627
 20
53.4344
 11
4.67308
 21
53.3838
  0
LINE
  8
0
 10
4.67308
 20
53.3838
 11
4.47394
 21
53.3191
  0
LINE
  8
0
 10
4.47394
 20
53.3191
 11
4.27979
 21
53.2406
  0
LINE
  8
0
 10
4.27979
 20
53.2406
 11
4.09158
 21
53.1488
  0
LINE
  8
0
 10
4.09158
 20
53.1488
 11
3.91025
 21
53.0441
  0
LINE
  8
0
 10
3.91025
 20
53.0441
 11
3.73665
 21
52.927
  0
LINE
  8
0
 10
3.73665
 20
52.927
 11
3.57164
 21
52.7981
  0
LINE
  8
0
 10
3.57164
 20
52.7981
 11
3.41603
 21
52.658
  0
LINE
  8
0
 10
3.41603
 20
52.658
 11
3.27057
 21
52.5074
  0
LINE
  8
0
 10
3.27057
 20
52.5074
 11
3.13597
 21
52.347
  0
LINE
  8
0
 10
3.13597
 20
52.347
 11
3.01289
 21
52.1776
  0
LINE
  8
0
 10
3.01289
 20
52.1776
 11
2.90192
 21
52
  0
LINE
  8
0
 10
2.90192
 20
52
 11
2.80362
 21
51.8151
  0
LINE
  8
0
 10
2.80362
 20
51.8151
 11
2.76027
 21
51.7178
  0
LINE
  8
0
 10
2.76027
 20
51.7178
 11
2.71274
 21
51.6685
  0
LINE
  8
0
 10
2.71274
 20
51.6685
 11
2.66788
 21
51.6151
  0
LINE
  8
0
 10
2.66788
 20
51.6151
 11
2.62685
 21
51.5586
  0
LINE
  8
0
 10
2.62685
 20
51.5586
 11
2.58986
 21
51.4994
  0
LINE
  8
0
 10
2.58986
 20
51.4994
 11
2.5571
 21
51.4378
  0
LINE
  8
0
 10
2.5571
 20
51.4378
 11
2.5287
 21
51.374
  0
LINE
  8
0
 10
2.5287
 20
51.374
 11
2.50484
 21
51.3084
  0
LINE
  8
0
 10
2.50484
 20
51.3084
 11
2.48296
 21
51.2305
  0
LINE
  8
0
 10
2.48296
 20
51.2305
 11
2.46352
 21
51.1486
  0
LINE
  8
0
 10
2.46352
 20
51.1486
 11
2.44482
 21
51.088
  0
LINE
  8
0
 10
2.44482
 20
51.088
 11
2.41975
 21
51.0229
  0
LINE
  8
0
 10
2.41975
 20
51.0229
 11
2.39018
 21
50.9596
  0
LINE
  8
0
 10
2.39018
 20
50.9596
 11
2.35625
 21
50.8985
  0
LINE
  8
0
 10
2.35625
 20
50.8985
 11
2.31804
 21
50.8398
  0
LINE
  8
0
 10
2.31804
 20
50.8398
 11
2.27727
 21
50.7858
  0
LINE
  8
0
 10
2.27727
 20
50.7858
 11
2.25464
 21
50.7591
  0
LINE
  8
0
 10
2.25464
 20
50.7591
 11
2.19444
 21
50.6944
  0
LINE
  8
0
 10
2.19444
 20
50.6944
 11
0.293701
 21
48.793
  0
LINE
  8
0
 10
0.293701
 20
48.793
 11
0.246109
 21
48.7419
  0
LINE
  8
0
 10
0.246109
 20
48.7419
 11
0.202194
 21
48.6877
  0
LINE
  8
0
 10
0.202194
 20
48.6877
 11
0.16217
 21
48.6305
  0
LINE
  8
0
 10
0.16217
 20
48.6305
 11
0.126236
 21
48.5707
  0
LINE
  8
0
 10
0.126236
 20
48.5707
 11
0.0945587
 21
48.5085
  0
LINE
  8
0
 10
0.0945587
 20
48.5085
 11
0.0672913
 21
48.4442
  0
LINE
  8
0
 10
0.0672913
 20
48.4442
 11
0.0445862
 21
48.3782
  0
LINE
  8
0
 10
0.0445862
 20
48.3782
 11
0.026535
 21
48.3108
  0
LINE
  8
0
 10
0.026535
 20
48.3108
 11
0.0132294
 21
48.2423
  0
LINE
  8
0
 10
0.0132294
 20
48.2423
 11
0.00473022
 21
48.173
  0
LINE
  8
0
 10
0.00473022
 20
48.173
 11
0.000946045
 21
48.086
  0
LINE
  8
0
 10
0.000946045
 20
48.086
 11
0.000595093
 21
33.9148
  0
LINE
  8
0
 10
0.000595093
 20
33.9148
 11
0.0030365
 21
33.8451
  0
LINE
  8
0
 10
0.0030365
 20
33.8451
 11
0.0103302
 21
33.7757
  0
LINE
  8
0
 10
0.0103302
 20
33.7757
 11
0.0224457
 21
33.7069
  0
LINE
  8
0
 10
0.0224457
 20
33.7069
 11
0.0393219
 21
33.6392
  0
LINE
  8
0
 10
0.0393219
 20
33.6392
 11
0.0608978
 21
33.5728
  0
LINE
  8
0
 10
0.0608978
 20
33.5728
 11
0.0870361
 21
33.5081
  0
LINE
  8
0
 10
0.0870361
 20
33.5081
 11
0.11763
 21
33.4453
  0
LINE
  8
0
 10
0.11763
 20
33.4453
 11
0.152527
 21
33.3849
  0
LINE
  8
0
 10
0.152527
 20
33.3849
 11
0.191559
 21
33.327
  0
LINE
  8
0
 10
0.191559
 20
33.327
 11
0.234528
 21
33.272
  0
LINE
  8
0
 10
0.234528
 20
33.272
 11
0.293121
 21
33.2081
  0
LINE
  8
0
 10
0.293121
 20
33.2081
 11
2.21893
 21
31.2802
  0
LINE
  8
0
 10
2.21893
 20
31.2802
 11
2.2657
 21
31.2283
  0
LINE
  8
0
 10
2.2657
 20
31.2283
 11
2.3089
 21
31.1729
  0
LINE
  8
0
 10
2.3089
 20
31.1729
 11
2.34766
 21
31.1155
  0
LINE
  8
0
 10
2.34766
 20
31.1155
 11
2.38261
 21
31.0549
  0
LINE
  8
0
 10
2.38261
 20
31.0549
 11
2.41307
 21
30.9925
  0
LINE
  8
0
 10
2.41307
 20
30.9925
 11
2.43932
 21
30.9275
  0
LINE
  8
0
 10
2.43932
 20
30.9275
 11
2.4608
 21
30.8614
  0
LINE
  8
0
 10
2.4608
 20
30.8614
 11
2.5
 21
30.7079
  0
LINE
  8
0
 10
2.5
 20
30.7079
 11
2.5
 21
3
  0
LINE
  8
0
 10
2.5
 20
3
 11
2.50731
 21
2.79073
  0
LINE
  8
0
 10
2.50731
 20
2.79073
 11
2.52919
 21
2.58247
  0
LINE
  8
0
 10
2.52919
 20
2.58247
 11
2.56555
 21
2.37627
  0
LINE
  8
0
 10
2.56555
 20
2.37627
 11
2.61621
 21
2.17308
  0
LINE
  8
0
 10
2.61621
 20
2.17308
 11
2.68092
 21
1.97394
  0
LINE
  8
0
 10
2.68092
 20
1.97394
 11
2.75937
 21
1.77979
  0
LINE
  8
0
 10
2.75937
 20
1.77979
 11
2.85115
 21
1.59158
  0
LINE
  8
0
 10
2.85115
 20
1.59158
 11
2.95586
 21
1.41025
  0
LINE
  8
0
 10
2.95586
 20
1.41025
 11
3.07295
 21
1.23665
  0
LINE
  8
0
 10
3.07295
 20
1.23665
 11
3.20187
 21
1.07164
  0
LINE
  8
0
 10
3.20187
 20
1.07164
 11
3.34198
 21
0.916031
  0
LINE
  8
0
 10
3.34198
 20
0.916031
 11
3.49261
 21
0.770569
  0
LINE
  8
0
 10
3.49261
 20
0.770569
 11
3.65302
 21
0.635971
  0
LINE
  8
0
 10
3.65302
 20
0.635971
 11
3.82242
 21
0.512894
  0
LINE
  8
0
 10
3.82242
 20
0.512894
 11
4
 21
0.401917
  0
LINE
  8
0
 10
4
 20
0.401917
 11
4.18489
 21
0.303619
  0
LINE
  8
0
 10
4.18489
 20
0.303619
 11
4.37617
 21
0.218445
  0
LINE
  8
0
 10
4.37617
 20
0.218445
 11
4.57295
 21
0.146835
  0
LINE
  8
0
 10
4.57295
 20
0.146835
 11
4.77423
 21
0.0891113
  0
LINE
  8
0
 10
4.77423
 20
0.0891113
 11
4.97905
 21
0.045578
  0
LINE
  8
0
 10
4.97905
 20
0.045578
 11
5.18642
 21
0.0164337
  0
LINE
  8
0
 10
5.18642
 20
0.0164337
 11
5.39529
 21
0.00183105
  0
LINE
  8
0
 10
5.39529
 20
0.00183105
 11
5.5
 21
0
  0
LINE
  8
0
 10
5.5
 20
0
 11
65.35
 21
0
  0
LINE
  8
0
 10
65.35
 20
0
 11
65.5593
 21
0.00730896
  0
ENDSEC
  0
SECTION
  2
OBJECTS
  0
DICTIONARY
  0
ENDSEC
  0
EOF
