<?xml version="1.0" standalone="no"?>
<!DOCTYPE svg PUBLIC "-//W3C//DTD SVG 1.1//EN" "http://www.w3.org/Graphics/SVG/1.1/DTD/svg11.dtd">
<svg width="71" height="54" viewBox="0 -54 71 54" xmlns="http://www.w3.org/2000/svg" version="1.1">
<title>OpenSCAD Model</title>
<path d="
M 65.5593,-0.00730896 L 65.7675,-0.0291901 L 65.9737,-0.0655518 L 66.1769,-0.116211 L 66.3761,-0.180923 L 66.5702,-0.259369
 L 66.7584,-0.351151 L 66.9397,-0.455856 L 67.1133,-0.572952 L 67.2784,-0.701874 L 67.434,-0.84198 L 67.5794,-0.992615
 L 67.714,-1.15302 L 67.8371,-1.32242 L 67.9481,-1.5 L 68.0464,-1.68489 L 68.1315,-1.87617 L 68.2032,-2.07295
 L 68.2609,-2.27423 L 68.3044,-2.47905 L 68.3336,-2.68642 L 68.3482,-2.89529 L 68.35,-3 L 68.35,-3.37698
 L 68.3977,-3.44141 L 68.4715,-3.5591 L 68.5123,-3.61528 L 68.5572,-3.66887 L 68.6058,-3.71915 L 68.6575,-3.76567
 L 68.7125,-3.80869 L 68.7702,-3.8476 L 68.8307,-3.88252 L 68.8933,-3.91309 L 68.9583,-3.93933 L 69.0244,-3.96082
 L 69.0921,-3.97769 L 69.161,-3.98984 L 69.2289,-3.99675 L 69.3182,-4 L 69.7998,-4.0002 L 69.8695,-4.00266
 L 69.9389,-4.00998 L 70.0077,-4.02214 L 70.0754,-4.03905 L 70.1418,-4.06064 L 70.2065,-4.08681 L 70.2692,-4.11743
 L 70.3296,-4.15236 L 70.3875,-4.19142 L 70.4425,-4.23441 L 70.4943,-4.28113 L 70.5428,-4.33136 L 70.5876,-4.38486
 L 70.6286,-4.44133 L 70.6656,-4.50055 L 70.6983,-4.56218 L 70.7267,-4.62596 L 70.7505,-4.69156 L 70.7698,-4.75867
 L 70.7843,-4.82693 L 70.7939,-4.89606 L 70.7994,-5.0002 L 70.7994,-33.6998 L 70.797,-33.7696 L 70.7897,-33.839
 L 70.7775,-33.9077 L 70.7607,-33.9754 L 70.7391,-34.0418 L 70.7129,-34.1065 L 70.6823,-34.1693 L 70.6474,-34.2297
 L 70.6084,-34.2876 L 70.5654,-34.3426 L 70.5187,-34.3945 L 70.4685,-34.4429 L 70.4151,-34.4878 L 70.3586,-34.5288
 L 70.2994,-34.5658 L 70.2378,-34.5986 L 70.174,-34.627 L 70.1084,-34.6508 L 70.0413,-34.6701 L 69.973,-34.6846
 L 69.9039,-34.6943 L 69.8009,-34.6998 L 69.2825,-34.7006 L 69.2123,-34.7043 L 69.143,-34.7129 L 69.0749,-34.7261
 L 69.0073,-34.7443 L 68.9415,-34.7669 L 68.8772,-34.7943 L 68.8153,-34.8258 L 68.7551,-34.8621 L 68.6981,-34.902
 L 68.6437,-34.9461 L 68.5929,-34.9935 L 68.5454,-35.0445 L 68.5015,-35.0987 L 68.4646,-35.1512 L 68.4231,-35.2195
 L 68.3848,-35.2778 L 68.35,-35.3234 L 68.35,-50.5 L 68.3427,-50.7093 L 68.3208,-50.9175 L 68.2844,-51.1237
 L 68.2338,-51.3269 L 68.1691,-51.5261 L 68.0906,-51.7202 L 67.9988,-51.9084 L 67.8941,-52.0898 L 67.777,-52.2634
 L 67.6481,-52.4284 L 67.508,-52.584 L 67.3574,-52.7294 L 67.197,-52.864 L 67.0276,-52.9871 L 66.85,-53.0981
 L 66.6651,-53.1964 L 66.4738,-53.2816 L 66.277,-53.3532 L 66.0758,-53.4109 L 65.8709,-53.4544 L 65.6636,-53.4836
 L 65.4547,-53.4982 L 65.35,-53.5 L 5.5,-53.5 L 5.29073,-53.4927 L 5.08247,-53.4708 L 4.87627,-53.4344
 L 4.67308,-53.3838 L 4.47394,-53.3191 L 4.27979,-53.2406 L 4.09158,-53.1488 L 3.91025,-53.0441 L 3.73665,-52.927
 L 3.57164,-52.7981 L 3.41603,-52.658 L 3.27057,-52.5074 L 3.13597,-52.347 L 3.01289,-52.1776 L 2.90192,-52
 L 2.80362,-51.8151 L 2.76027,-51.7178 L 2.71274,-51.6685 L 2.66788,-51.6151 L 2.62685,-51.5586 L 2.58986,-51.4994
 L 2.5571,-51.4378 L 2.5287,-51.374 L 2.50484,-51.3084 L 2.48296,-51.2305 L 2.46352,-51.1486 L 2.44482,-51.088
 L 2.41975,-51.0229 L 2.39018,-50.9596 L 2.35625,-50.8985 L 2.31804,-50.8398 L 2.27727,-50.7858 L 2.25464,-50.7591
 L 2.19444,-50.6944 L 0.293701,-48.793 L 0.246109,-48.7419 L 0.202194,-48.6877 L 0.16217,-48.6305 L 0.126236,-48.5707
 L 0.0945587,-48.5085 L 0.0672913,-48.4442 L 0.0445862,-48.3782 L 0.026535,-48.3108 L 0.0132294,-48.2423 L 0.00473022,-48.173
 L 0.000946045,-48.086 L 0.000595093,-33.9148 L 0.0030365,-33.8451 L 0.0103302,-33.7757 L 0.0224457,-33.7069 L 0.0393219,-33.6392
 L 0.0608978,-33.5728 L 0.0870361,-33.5081 L 0.11763,-33.4453 L 0.152527,-33.3849 L 0.191559,-33.327 L 0.234528,-33.272
 L 0.293121,-33.2081 L 2.21893,-31.2802 L 2.2657,-31.2283 L 2.3089,-31.1729 L 2.34766,-31.1155 L 2.38261,-31.0549
 L 2.41307,-30.9925 L 2.43932,-30.9275 L 2.4608,-30.8614 L 2.5,-30.7079 L 2.5,-3 L 2.50731,-2.79073
 L 2.52919,-2.58247 L 2.56555,-2.37627 L 2.61621,-2.17308 L 2.68092,-1.97394 L 2.75937,-1.77979 L 2.85115,-1.59158
 L 2.95586,-1.41025 L 3.07295,-1.23665 L 3.20187,-1.07164 L 3.34198,-0.916031 L 3.49261,-0.770569 L 3.65302,-0.635971
 L 3.82242,-0.512894 L 4,-0.401917 L 4.18489,-0.303619 L 4.37617,-0.218445 L 4.57295,-0.146835 L 4.77423,-0.0891113
 L 4.97905,-0.045578 L 5.18642,-0.0164337 L 5.39529,-0.00183105 L 5.5,-0 L 65.35,-0 z
" stroke="black" fill="lightgray" stroke-width="0.5"/></svg>
