solid OpenSCAD_Model
  facet normal -1 0 0
    outer loop
      vertex 0 56.5 0
      vertex 0 33 1
      vertex 0 56.5 3
    endloop
  endfacet
  facet normal -1 0 0
    outer loop
      vertex 0 56.5 0
      vertex 0 21 1
      vertex 0 33 1
    endloop
  endfacet
  facet normal -1 0 0
    outer loop
      vertex 0 21 1
      vertex 0 13.5 1
      vertex 0 21 3
    endloop
  endfacet
  facet normal -1 0 0
    outer loop
      vertex 0 0 0
      vertex 0 21 1
      vertex 0 56.5 0
    endloop
  endfacet
  facet normal -1 -0 0
    outer loop
      vertex 0 21 1
      vertex 0 0 0
      vertex 0 13.5 1
    endloop
  endfacet
  facet normal -1 -0 0
    outer loop
      vertex 0 13.5 1
      vertex 0 0 0
      vertex 0 3.5 1
    endloop
  endfacet
  facet normal -1 0 0
    outer loop
      vertex 0 0 3
      vertex 0 3.5 1
      vertex 0 0 0
    endloop
  endfacet
  facet normal -1 0 0
    outer loop
      vertex 0 3.5 1
      vertex 0 0 3
      vertex 0 3.5 3
    endloop
  endfacet
  facet normal -1 -0 0
    outer loop
      vertex 0 56.5 3
      vertex 0 33 1
      vertex 0 33 3
    endloop
  endfacet
  facet normal -1 -0 0
    outer loop
      vertex 0 21 3
      vertex 0 13.5 1
      vertex 0 13.5 3
    endloop
  endfacet
  facet normal 0 0 1
    outer loop
      vertex 1.5 3.5 3
      vertex 0 3.5 3
      vertex 1.5 1.5 3
    endloop
  endfacet
  facet normal -0 0 1
    outer loop
      vertex 1.5 1.5 3
      vertex 19.5 0 3
      vertex 19.5 1.5 3
    endloop
  endfacet
  facet normal 0 0 1
    outer loop
      vertex 1.5 1.5 3
      vertex 0 0 3
      vertex 19.5 0 3
    endloop
  endfacet
  facet normal 0 0 1
    outer loop
      vertex 0 0 3
      vertex 1.5 1.5 3
      vertex 0 3.5 3
    endloop
  endfacet
  facet normal 0 0 1
    outer loop
      vertex 73 1.5 3
      vertex 74 11 3
      vertex 73 11 3
    endloop
  endfacet
  facet normal 0 0 1
    outer loop
      vertex 74 11 3
      vertex 73 1.5 3
      vertex 74 0 3
    endloop
  endfacet
  facet normal 0 0 1
    outer loop
      vertex 31.5 0 3
      vertex 73 1.5 3
      vertex 31.5 1.5 3
    endloop
  endfacet
  facet normal 0 0 1
    outer loop
      vertex 73 1.5 3
      vertex 31.5 0 3
      vertex 74 0 3
    endloop
  endfacet
  facet normal 0 0 1
    outer loop
      vertex 74 56.5 3
      vertex 73 55.5 3
      vertex 74 21 3
    endloop
  endfacet
  facet normal 0 0 1
    outer loop
      vertex 74 56.5 3
      vertex 1.5 55.5 3
      vertex 73 55.5 3
    endloop
  endfacet
  facet normal -0 0 1
    outer loop
      vertex 0 56.5 3
      vertex 1.5 55.5 3
      vertex 74 56.5 3
    endloop
  endfacet
  facet normal 0 0 1
    outer loop
      vertex 0 33 3
      vertex 1.5 55.5 3
      vertex 0 56.5 3
    endloop
  endfacet
  facet normal 0 0 1
    outer loop
      vertex 1.5 55.5 3
      vertex 0 33 3
      vertex 1.5 33 3
    endloop
  endfacet
  facet normal 0 0 1
    outer loop
      vertex 74 21 3
      vertex 73 55.5 3
      vertex 73 21 3
    endloop
  endfacet
  facet normal -0 0 1
    outer loop
      vertex 0 21 3
      vertex 1.5 13.5 3
      vertex 1.5 21 3
    endloop
  endfacet
  facet normal 0 0 1
    outer loop
      vertex 1.5 13.5 3
      vertex 0 21 3
      vertex 0 13.5 3
    endloop
  endfacet
  facet normal 1 0 0
    outer loop
      vertex 74 11 3
      vertex 74 0 3
      vertex 74 11 1
    endloop
  endfacet
  facet normal 1 0 0
    outer loop
      vertex 74 21 1
      vertex 74 56.5 3
      vertex 74 21 3
    endloop
  endfacet
  facet normal 1 0 0
    outer loop
      vertex 74 56.5 3
      vertex 74 21 1
      vertex 74 56.5 0
    endloop
  endfacet
  facet normal 1 0 0
    outer loop
      vertex 74 0 0
      vertex 74 21 1
      vertex 74 11 1
    endloop
  endfacet
  facet normal 1 0 0
    outer loop
      vertex 74 21 1
      vertex 74 0 0
      vertex 74 56.5 0
    endloop
  endfacet
  facet normal 1 0 0
    outer loop
      vertex 74 0 0
      vertex 74 11 1
      vertex 74 0 3
    endloop
  endfacet
  facet normal 0 -1 0
    outer loop
      vertex 0 0 3
      vertex 19.5 0 1
      vertex 19.5 0 3
    endloop
  endfacet
  facet normal 0 -1 -0
    outer loop
      vertex 19.5 0 1
      vertex 0 0 0
      vertex 31.5 0 1
    endloop
  endfacet
  facet normal 0 -1 0
    outer loop
      vertex 0 0 0
      vertex 19.5 0 1
      vertex 0 0 3
    endloop
  endfacet
  facet normal 0 -1 0
    outer loop
      vertex 31.5 0 1
      vertex 74 0 3
      vertex 31.5 0 3
    endloop
  endfacet
  facet normal 0 -1 0
    outer loop
      vertex 31.5 0 1
      vertex 74 0 0
      vertex 74 0 3
    endloop
  endfacet
  facet normal 0 -1 0
    outer loop
      vertex 74 0 0
      vertex 31.5 0 1
      vertex 0 0 0
    endloop
  endfacet
  facet normal 0 1 -0
    outer loop
      vertex 74 56.5 0
      vertex 0 56.5 3
      vertex 74 56.5 3
    endloop
  endfacet
  facet normal 0 1 0
    outer loop
      vertex 0 56.5 3
      vertex 74 56.5 0
      vertex 0 56.5 0
    endloop
  endfacet
  facet normal 0 1 -0
    outer loop
      vertex 72 6 0
      vertex 69.5 6 1
      vertex 72 6 1
    endloop
  endfacet
  facet normal 0 1 0
    outer loop
      vertex 69.5 6 1
      vertex 72 6 0
      vertex 69.5 6 0
    endloop
  endfacet
  facet normal -1 0 0
    outer loop
      vertex 72 6 0
      vertex 72 39.5 1
      vertex 72 39.5 0
    endloop
  endfacet
  facet normal -1 -0 0
    outer loop
      vertex 72 39.5 1
      vertex 72 6 0
      vertex 72 6 1
    endloop
  endfacet
  facet normal 0 -1 0
    outer loop
      vertex 69.5 39.5 0
      vertex 72 39.5 1
      vertex 69.5 39.5 1
    endloop
  endfacet
  facet normal 0 -1 -0
    outer loop
      vertex 72 39.5 1
      vertex 69.5 39.5 0
      vertex 72 39.5 0
    endloop
  endfacet
  facet normal -1 0 0
    outer loop
      vertex 69.5 39.5 0
      vertex 69.5 54.5 1
      vertex 69.5 54.5 0
    endloop
  endfacet
  facet normal -1 -0 0
    outer loop
      vertex 69.5 54.5 1
      vertex 69.5 39.5 0
      vertex 69.5 39.5 1
    endloop
  endfacet
  facet normal 0 -1 0
    outer loop
      vertex 6.5 54.5 0
      vertex 69.5 54.5 1
      vertex 6.5 54.5 1
    endloop
  endfacet
  facet normal 0 -1 -0
    outer loop
      vertex 69.5 54.5 1
      vertex 6.5 54.5 0
      vertex 69.5 54.5 0
    endloop
  endfacet
  facet normal 1 -0 0
    outer loop
      vertex 6.5 40.5 1
      vertex 6.5 54.5 0
      vertex 6.5 54.5 1
    endloop
  endfacet
  facet normal 1 0 0
    outer loop
      vertex 6.5 54.5 0
      vertex 6.5 40.5 1
      vertex 6.5 40.5 0
    endloop
  endfacet
  facet normal 0 1 -0
    outer loop
      vertex 63.5 40.5 0
      vertex 6.5 40.5 1
      vertex 63.5 40.5 1
    endloop
  endfacet
  facet normal 0 1 0
    outer loop
      vertex 6.5 40.5 1
      vertex 63.5 40.5 0
      vertex 6.5 40.5 0
    endloop
  endfacet
  facet normal 1 -0 0
    outer loop
      vertex 63.5 16.5 1
      vertex 63.5 40.5 0
      vertex 63.5 40.5 1
    endloop
  endfacet
  facet normal 1 0 0
    outer loop
      vertex 63.5 40.5 0
      vertex 63.5 16.5 1
      vertex 63.5 16.5 0
    endloop
  endfacet
  facet normal 0 -1 0
    outer loop
      vertex 6.5 16.5 0
      vertex 63.5 16.5 1
      vertex 6.5 16.5 1
    endloop
  endfacet
  facet normal 0 -1 -0
    outer loop
      vertex 63.5 16.5 1
      vertex 6.5 16.5 0
      vertex 63.5 16.5 0
    endloop
  endfacet
  facet normal 1 -0 0
    outer loop
      vertex 6.5 2.5 1
      vertex 6.5 16.5 0
      vertex 6.5 16.5 1
    endloop
  endfacet
  facet normal 1 0 0
    outer loop
      vertex 6.5 16.5 0
      vertex 6.5 2.5 1
      vertex 6.5 2.5 0
    endloop
  endfacet
  facet normal 0 1 -0
    outer loop
      vertex 69.5 2.5 0
      vertex 6.5 2.5 1
      vertex 69.5 2.5 1
    endloop
  endfacet
  facet normal 0 1 0
    outer loop
      vertex 6.5 2.5 1
      vertex 69.5 2.5 0
      vertex 6.5 2.5 0
    endloop
  endfacet
  facet normal -1 0 0
    outer loop
      vertex 69.5 2.5 0
      vertex 69.5 6 1
      vertex 69.5 6 0
    endloop
  endfacet
  facet normal -1 -0 0
    outer loop
      vertex 69.5 6 1
      vertex 69.5 2.5 0
      vertex 69.5 2.5 1
    endloop
  endfacet
  facet normal -0 0 1
    outer loop
      vertex 0 13.5 1
      vertex 1.5 3.5 1
      vertex 1.5 13.5 1
    endloop
  endfacet
  facet normal 0 0 1
    outer loop
      vertex 1.5 3.5 1
      vertex 0 13.5 1
      vertex 0 3.5 1
    endloop
  endfacet
  facet normal -0 0 1
    outer loop
      vertex 0 33 1
      vertex 1.5 21 1
      vertex 1.5 33 1
    endloop
  endfacet
  facet normal 0 0 1
    outer loop
      vertex 1.5 21 1
      vertex 0 33 1
      vertex 0 21 1
    endloop
  endfacet
  facet normal -0 0 1
    outer loop
      vertex 72 39.5 1
      vertex 73 21 1
      vertex 73 55.5 1
    endloop
  endfacet
  facet normal 0 0 1
    outer loop
      vertex 72 6 1
      vertex 73 21 1
      vertex 72 39.5 1
    endloop
  endfacet
  facet normal 0 0 1
    outer loop
      vertex 73 21 1
      vertex 72 6 1
      vertex 73 11 1
    endloop
  endfacet
  facet normal 0 0 1
    outer loop
      vertex 73 55.5 1
      vertex 69.5 54.5 1
      vertex 72 39.5 1
    endloop
  endfacet
  facet normal 0 0 1
    outer loop
      vertex 73 55.5 1
      vertex 6.5 54.5 1
      vertex 69.5 54.5 1
    endloop
  endfacet
  facet normal 0 0 1
    outer loop
      vertex 1.5 55.5 1
      vertex 6.5 40.5 1
      vertex 6.5 54.5 1
    endloop
  endfacet
  facet normal 0 0 1
    outer loop
      vertex 6.5 40.5 1
      vertex 1.5 33 1
      vertex 6.5 16.5 1
    endloop
  endfacet
  facet normal 0 0 1
    outer loop
      vertex 6.5 40.5 1
      vertex 1.5 55.5 1
      vertex 1.5 33 1
    endloop
  endfacet
  facet normal -0 0 1
    outer loop
      vertex 1.5 55.5 1
      vertex 6.5 54.5 1
      vertex 73 55.5 1
    endloop
  endfacet
  facet normal -0 0 1
    outer loop
      vertex 73 21 1
      vertex 74 11 1
      vertex 74 21 1
    endloop
  endfacet
  facet normal 0 0 1
    outer loop
      vertex 74 11 1
      vertex 73 21 1
      vertex 73 11 1
    endloop
  endfacet
  facet normal 0 0 1
    outer loop
      vertex 73 11 1
      vertex 72 6 1
      vertex 73 1.5 1
    endloop
  endfacet
  facet normal 0 0 1
    outer loop
      vertex 69.5 2.5 1
      vertex 72 6 1
      vertex 69.5 6 1
    endloop
  endfacet
  facet normal 0 0 1
    outer loop
      vertex 72 6 1
      vertex 69.5 2.5 1
      vertex 73 1.5 1
    endloop
  endfacet
  facet normal 0 0 1
    outer loop
      vertex 69.5 2.5 1
      vertex 31.5 1.5 1
      vertex 73 1.5 1
    endloop
  endfacet
  facet normal 0 0 1
    outer loop
      vertex 31.5 1.5 1
      vertex 19.5 1.5 1
      vertex 31.5 0 1
    endloop
  endfacet
  facet normal -0 0 1
    outer loop
      vertex 6.5 2.5 1
      vertex 31.5 1.5 1
      vertex 69.5 2.5 1
    endloop
  endfacet
  facet normal 0 0 1
    outer loop
      vertex 31.5 1.5 1
      vertex 6.5 2.5 1
      vertex 19.5 1.5 1
    endloop
  endfacet
  facet normal -0 0 1
    outer loop
      vertex 1.5 21 1
      vertex 6.5 16.5 1
      vertex 1.5 33 1
    endloop
  endfacet
  facet normal 0 0 1
    outer loop
      vertex 1.5 13.5 1
      vertex 6.5 16.5 1
      vertex 1.5 21 1
    endloop
  endfacet
  facet normal 0 0 1
    outer loop
      vertex 6.5 16.5 1
      vertex 1.5 13.5 1
      vertex 6.5 2.5 1
    endloop
  endfacet
  facet normal -0 0 1
    outer loop
      vertex 1.5 3.5 1
      vertex 6.5 2.5 1
      vertex 1.5 13.5 1
    endloop
  endfacet
  facet normal 0 0 1
    outer loop
      vertex 6.5 2.5 1
      vertex 1.5 1.5 1
      vertex 19.5 1.5 1
    endloop
  endfacet
  facet normal 0 0 1
    outer loop
      vertex 1.5 1.5 1
      vertex 6.5 2.5 1
      vertex 1.5 3.5 1
    endloop
  endfacet
  facet normal 0 0 1
    outer loop
      vertex 72 39.5 1
      vertex 69.5 54.5 1
      vertex 69.5 39.5 1
    endloop
  endfacet
  facet normal 0 0 1
    outer loop
      vertex 31.5 0 1
      vertex 19.5 1.5 1
      vertex 19.5 0 1
    endloop
  endfacet
  facet normal -0 0 1
    outer loop
      vertex 6.5 40.5 1
      vertex 63.5 16.5 1
      vertex 63.5 40.5 1
    endloop
  endfacet
  facet normal 0 0 1
    outer loop
      vertex 63.5 16.5 1
      vertex 6.5 40.5 1
      vertex 6.5 16.5 1
    endloop
  endfacet
  facet normal -1 0 0
    outer loop
      vertex 73 1.5 1
      vertex 73 11 3
      vertex 73 11 1
    endloop
  endfacet
  facet normal -1 -0 0
    outer loop
      vertex 73 11 3
      vertex 73 1.5 1
      vertex 73 1.5 3
    endloop
  endfacet
  facet normal -1 0 0
    outer loop
      vertex 73 21 1
      vertex 73 55.5 3
      vertex 73 55.5 1
    endloop
  endfacet
  facet normal -1 -0 0
    outer loop
      vertex 73 55.5 3
      vertex 73 21 1
      vertex 73 21 3
    endloop
  endfacet
  facet normal 1 -0 0
    outer loop
      vertex 1.5 1.5 3
      vertex 1.5 3.5 1
      vertex 1.5 3.5 3
    endloop
  endfacet
  facet normal 1 0 0
    outer loop
      vertex 1.5 3.5 1
      vertex 1.5 1.5 3
      vertex 1.5 1.5 1
    endloop
  endfacet
  facet normal 1 -0 0
    outer loop
      vertex 1.5 33 3
      vertex 1.5 55.5 1
      vertex 1.5 55.5 3
    endloop
  endfacet
  facet normal 1 0 0
    outer loop
      vertex 1.5 55.5 1
      vertex 1.5 33 3
      vertex 1.5 33 1
    endloop
  endfacet
  facet normal 1 -0 0
    outer loop
      vertex 1.5 13.5 3
      vertex 1.5 21 1
      vertex 1.5 21 3
    endloop
  endfacet
  facet normal 1 0 0
    outer loop
      vertex 1.5 21 1
      vertex 1.5 13.5 3
      vertex 1.5 13.5 1
    endloop
  endfacet
  facet normal 0 1 -0
    outer loop
      vertex 73 1.5 1
      vertex 31.5 1.5 3
      vertex 73 1.5 3
    endloop
  endfacet
  facet normal 0 1 0
    outer loop
      vertex 31.5 1.5 3
      vertex 73 1.5 1
      vertex 31.5 1.5 1
    endloop
  endfacet
  facet normal 0 1 -0
    outer loop
      vertex 19.5 1.5 1
      vertex 1.5 1.5 3
      vertex 19.5 1.5 3
    endloop
  endfacet
  facet normal 0 1 0
    outer loop
      vertex 1.5 1.5 3
      vertex 19.5 1.5 1
      vertex 1.5 1.5 1
    endloop
  endfacet
  facet normal 0 -1 0
    outer loop
      vertex 1.5 55.5 1
      vertex 73 55.5 3
      vertex 1.5 55.5 3
    endloop
  endfacet
  facet normal 0 -1 -0
    outer loop
      vertex 73 55.5 3
      vertex 1.5 55.5 1
      vertex 73 55.5 1
    endloop
  endfacet
  facet normal 0 -1 0
    outer loop
      vertex 73 21 1
      vertex 74 21 3
      vertex 73 21 3
    endloop
  endfacet
  facet normal 0 -1 -0
    outer loop
      vertex 74 21 3
      vertex 73 21 1
      vertex 74 21 1
    endloop
  endfacet
  facet normal 0 1 -0
    outer loop
      vertex 74 11 1
      vertex 73 11 3
      vertex 74 11 3
    endloop
  endfacet
  facet normal 0 1 0
    outer loop
      vertex 73 11 3
      vertex 74 11 1
      vertex 73 11 1
    endloop
  endfacet
  facet normal 0 -1 0
    outer loop
      vertex 0 13.5 1
      vertex 1.5 13.5 3
      vertex 0 13.5 3
    endloop
  endfacet
  facet normal 0 -1 -0
    outer loop
      vertex 1.5 13.5 3
      vertex 0 13.5 1
      vertex 1.5 13.5 1
    endloop
  endfacet
  facet normal 0 1 -0
    outer loop
      vertex 1.5 3.5 1
      vertex 0 3.5 3
      vertex 1.5 3.5 3
    endloop
  endfacet
  facet normal 0 1 0
    outer loop
      vertex 0 3.5 3
      vertex 1.5 3.5 1
      vertex 0 3.5 1
    endloop
  endfacet
  facet normal 0 -1 0
    outer loop
      vertex 0 33 1
      vertex 1.5 33 3
      vertex 0 33 3
    endloop
  endfacet
  facet normal 0 -1 -0
    outer loop
      vertex 1.5 33 3
      vertex 0 33 1
      vertex 1.5 33 1
    endloop
  endfacet
  facet normal 0 1 -0
    outer loop
      vertex 1.5 21 1
      vertex 0 21 3
      vertex 1.5 21 3
    endloop
  endfacet
  facet normal 0 1 0
    outer loop
      vertex 0 21 3
      vertex 1.5 21 1
      vertex 0 21 1
    endloop
  endfacet
  facet normal 1 -0 0
    outer loop
      vertex 19.5 0 3
      vertex 19.5 1.5 1
      vertex 19.5 1.5 3
    endloop
  endfacet
  facet normal 1 0 0
    outer loop
      vertex 19.5 1.5 1
      vertex 19.5 0 3
      vertex 19.5 0 1
    endloop
  endfacet
  facet normal -1 0 0
    outer loop
      vertex 31.5 0 1
      vertex 31.5 1.5 3
      vertex 31.5 1.5 1
    endloop
  endfacet
  facet normal -1 -0 0
    outer loop
      vertex 31.5 1.5 3
      vertex 31.5 0 1
      vertex 31.5 0 3
    endloop
  endfacet
  facet normal 0 0 -1
    outer loop
      vertex 72 39.5 0
      vertex 74 0 0
      vertex 72 6 0
    endloop
  endfacet
  facet normal 0 0 -1
    outer loop
      vertex 74 0 0
      vertex 69.5 2.5 0
      vertex 72 6 0
    endloop
  endfacet
  facet normal 0 0 -1
    outer loop
      vertex 74 0 0
      vertex 6.5 2.5 0
      vertex 69.5 2.5 0
    endloop
  endfacet
  facet normal 0 0 -1
    outer loop
      vertex 0 0 0
      vertex 6.5 16.5 0
      vertex 6.5 2.5 0
    endloop
  endfacet
  facet normal 0 0 -1
    outer loop
      vertex 0 56.5 0
      vertex 6.5 16.5 0
      vertex 0 0 0
    endloop
  endfacet
  facet normal 0 0 -1
    outer loop
      vertex 6.5 16.5 0
      vertex 0 56.5 0
      vertex 6.5 40.5 0
    endloop
  endfacet
  facet normal 0 0 -1
    outer loop
      vertex 0 0 0
      vertex 6.5 2.5 0
      vertex 74 0 0
    endloop
  endfacet
  facet normal 0 0 -1
    outer loop
      vertex 74 0 0
      vertex 72 39.5 0
      vertex 74 56.5 0
    endloop
  endfacet
  facet normal 0 0 -1
    outer loop
      vertex 69.5 54.5 0
      vertex 72 39.5 0
      vertex 69.5 39.5 0
    endloop
  endfacet
  facet normal 0 0 -1
    outer loop
      vertex 72 39.5 0
      vertex 69.5 54.5 0
      vertex 74 56.5 0
    endloop
  endfacet
  facet normal 0 0 -1
    outer loop
      vertex 6.5 54.5 0
      vertex 74 56.5 0
      vertex 69.5 54.5 0
    endloop
  endfacet
  facet normal 0 0 -1
    outer loop
      vertex 6.5 54.5 0
      vertex 0 56.5 0
      vertex 74 56.5 0
    endloop
  endfacet
  facet normal 0 0 -1
    outer loop
      vertex 6.5 40.5 0
      vertex 0 56.5 0
      vertex 6.5 54.5 0
    endloop
  endfacet
  facet normal -0 0 -1
    outer loop
      vertex 72 6 0
      vertex 69.5 2.5 0
      vertex 69.5 6 0
    endloop
  endfacet
  facet normal 0 0 -1
    outer loop
      vertex 6.5 16.5 0
      vertex 63.5 40.5 0
      vertex 63.5 16.5 0
    endloop
  endfacet
  facet normal -0 0 -1
    outer loop
      vertex 63.5 40.5 0
      vertex 6.5 16.5 0
      vertex 6.5 40.5 0
    endloop
  endfacet
endsolid OpenSCAD_Model
